# xmcd CD database file
#
# Track frame offsets:
#	150
#	11822
#	22238
#	32322
#	42248
#	50646
#	59721
#	70169
#	79791
#	90556
#
# Disc length: 1358 seconds
#
# Revision: 0
# Processed by: cddbd v1.5.2PL0 Copyright (c) Steve Scherf et al.
# Submitted via: CDex 1.70beta3
#
DISCID=82054c0a
DTITLE=Russ Garcia - Wigville
DYEAR=1955
DGENRE=Jazz
TTITLE0=Rocky Road
TTITLE1=Floating
TTITLE2=Butter Duck
TTITLE3=Mellw Bone
TTITLE4=Wigville
TTITLE5=Smogville
TTITLE6=Livin' It Up
TTITLE7=Tone Row
TTITLE8=Lovely One
TTITLE9=Then The Lid Blew Off
EXTD=YEAR: 1955
EXTT0=
EXTT1=
EXTT2=
EXTT3=
EXTT4=
EXTT5=
EXTT6=
EXTT7=
EXTT8=
EXTT9=
PLAYORDER=
